<?xml version="1.0" encoding="UTF-8" standalone="no"?>
<svg
   id="svg43"
   version="1.1"
   height="184.56717"
   width="151.83018"
   sodipodi:docname="North_Arrow_QGIS.svg"
   inkscape:version="1.1.1 (3bf5ae0d25, 2021-09-20)"
   xmlns:inkscape="http://www.inkscape.org/namespaces/inkscape"
   xmlns:sodipodi="http://sodipodi.sourceforge.net/DTD/sodipodi-0.dtd"
   xmlns="http://www.w3.org/2000/svg"
   xmlns:svg="http://www.w3.org/2000/svg"
   xmlns:rdf="http://www.w3.org/1999/02/22-rdf-syntax-ns#"
   xmlns:cc="http://creativecommons.org/ns#"
   xmlns:dc="http://purl.org/dc/elements/1.1/">
  <sodipodi:namedview
     id="namedview25"
     pagecolor="#ffffff"
     bordercolor="#111111"
     borderopacity="1"
     inkscape:pageshadow="0"
     inkscape:pageopacity="0"
     inkscape:pagecheckerboard="1"
     showgrid="false"
     inkscape:zoom="2.9937308"
     inkscape:cx="68.643446"
     inkscape:cy="92.025642"
     inkscape:window-width="1920"
     inkscape:window-height="1001"
     inkscape:window-x="-9"
     inkscape:window-y="-9"
     inkscape:window-maximized="1"
     inkscape:current-layer="svg43"
     inkscape:snap-intersection-paths="true"
     inkscape:snap-smooth-nodes="true" />
  <metadata
     id="metadata49">
    <rdf:RDF>
      <cc:Work
         rdf:about="">
        <dc:format>image/svg+xml</dc:format>
        <dc:type
           rdf:resource="http://purl.org/dc/dcmitype/StillImage" />
      </cc:Work>
    </rdf:RDF>
  </metadata>
  <defs
     id="defs47" />
  <linearGradient
     gradientTransform="rotate(-135,118.82094,162.8601)"
     y2="99.041023"
     x2="350.022"
     y1="247.783"
     x1="350.022"
     gradientUnits="userSpaceOnUse"
     id="a">
    <stop
       id="stop4"
       stop-color="#589632"
       offset="0" />
    <stop
       id="stop6"
       stop-color="#93b023"
       offset="1" />
  </linearGradient>
  <linearGradient
     gradientTransform="translate(-110.928,-98.765)"
     y2="98.821999"
     x2="459.22198"
     y1="247.92673"
     x1="459.22198"
     gradientUnits="userSpaceOnUse"
     id="b">
    <stop
       id="stop11"
       stop-color="#589632"
       offset="0" />
    <stop
       id="stop13"
       stop-color="#93b023"
       offset="1" />
  </linearGradient>
  <linearGradient
     gradientTransform="translate(-110.928,-98.765)"
     y2="99.191719"
     x2="550.54449"
     y1="247.57396"
     x1="550.54449"
     gradientUnits="userSpaceOnUse"
     id="c">
    <stop
       id="stop18"
       stop-color="#589632"
       offset="0" />
    <stop
       id="stop20"
       stop-color="#93b023"
       offset="1" />
  </linearGradient>
  <linearGradient
     y2="101.498"
     x2="232.211"
     y1="250.034"
     x1="234.47"
     gradientUnits="userSpaceOnUse"
     id="d"
     gradientTransform="rotate(-135,111.62238,146.97394)">
    <stop
       id="stop25"
       stop-color="#589632"
       offset="0" />
    <stop
       id="stop27"
       stop-color="#93b023"
       offset="1" />
  </linearGradient>
  <linearGradient
     gradientTransform="translate(-110.928,-98.765)"
     y2="98.967812"
     x2="187.59422"
     y1="246.9883"
     x1="187.59422"
     gradientUnits="userSpaceOnUse"
     id="e">
    <stop
       id="stop34"
       stop-color="#589632"
       offset="0" />
    <stop
       id="stop36"
       stop-color="#93b023"
       offset="1" />
  </linearGradient>
  <g
     id="g1000"
     transform="rotate(180,76.680196,45.41353)">
    <path
       id="path2"
       d="M 60.952831,75.054336 76.725554,90.82706 91.880974,75.671641 91.836426,48.846131 76.018448,64.664109 60.806459,49.452121 Z"
       fill="#ee7913" />
    <path
       id="path30"
       d="M 76.01845,51.936186 91.815216,36.139421 91.728949,-15.791915 75.311344,-32.209521 60.423918,-17.322094 60.732923,36.650659 Z"
       fill="url(#d)"
       style="fill:url(#d)" />
    <path
       id="path32"
       d="M 60.806459,49.452121 76.018448,64.664109 91.836426,48.846131 91.815213,36.139422 76.018448,51.936187 60.73292,36.65066 Z"
       fill="#f0e64a" />
  </g>
  <path
     id="path9"
     d="m 24.978053,159.66137 c 30.916123,30.91613 75.713597,32.49032 104.911447,3.29247 29.34069,-29.34069 28.19609,-74.569166 -2.71933,-105.484582 -7.98111,-7.981114 -16.9081,-13.972887 -26.261,-17.982893 l 0.0746,29.162635 c 2.89483,1.809225 5.57512,3.940944 7.98948,6.354293 17.6812,17.681205 18.17888,47.258877 -0.67258,66.110337 -18.851473,18.85147 -47.94189,18.19746 -65.788558,0.35079 -17.846669,-17.84666 -17.839854,-46.274843 1.01232,-65.127017 3.066015,-3.066015 6.398615,-5.634841 9.899501,-7.722927 l -0.0028,-32.728557 C 41.809037,39.059417 30.852433,45.295828 21.541958,54.606303 -7.513059,83.661321 -6.0801983,128.60312 24.978053,159.66137 Z"
     style="fill:url(#a);stroke:#ffffff;stroke-width:1.4;stroke-miterlimit:4;stroke-dasharray:none;stroke-opacity:1"
     sodipodi:nodetypes="ssscccsssccss" />
  <path
     id="path41"
     fill-opacity="0.173"
     fill="#ffffff"
     d="M 77.781053,123.03658 76.36684,2e-6 61.478707,14.888136 l 0.309712,53.972046 0.07283,12.800754 0.146371,25.602214 z" />
  <path
     style="fill:#6ea02c;fill-opacity:1;stroke:none;stroke-width:2.234;stroke-linecap:butt;stroke-linejoin:round;stroke-miterlimit:4;stroke-dasharray:none;stroke-opacity:1;paint-order:normal"
     d="M 41.901565,140.246 V 70.78 h 15.78773 l 37.890533,40.36072 V 70.78 h 15.787732 v 69.466 H 95.579828 L 57.689295,101.463 v 38.783 z"
     id="path15948"
     sodipodi:nodetypes="ccccccccccc" />
  <path
     style="font-variation-settings:normal;fill:#f0e64a;fill-opacity:1;stroke:none;stroke-width:0;stroke-linecap:butt;stroke-linejoin:round;stroke-miterlimit:4;stroke-dasharray:none;stroke-dashoffset:0;stroke-opacity:1;stop-color:#000000"
     d="m 95.579828,70.78 7.896942,-8.65e-4 7.89165,8.878111 v 8.881887 z"
     id="path5720"
     sodipodi:nodetypes="ccccc" />
  <path
     style="font-variation-settings:normal;fill:#ee7913;fill-opacity:1;stroke:#000000;stroke-width:0;stroke-linecap:butt;stroke-linejoin:round;stroke-miterlimit:4;stroke-dasharray:none;stroke-dashoffset:0;stroke-opacity:1;stop-color:#000000"
     d="M 111.36756,70.78 100.477,70.779 111.36842,83.032 Z"
     id="path2405"
     sodipodi:nodetypes="cccc" />
  <path
     style="font-variation-settings:normal;fill:#ffffff;fill-opacity:0.22;stroke:none;stroke-width:0;stroke-linecap:butt;stroke-linejoin:round;stroke-miterlimit:4;stroke-dasharray:none;stroke-dashoffset:0;stroke-opacity:1;stop-color:#000000"
     d="m 111.36756,140.246 9.7e-4,-12.27127 L 57.689295,70.78 h -15.78773 z"
     id="path7604"
     sodipodi:nodetypes="ccccc" />
  <path
     style="font-variation-settings:normal;vector-effect:none;fill:#ffffff;fill-opacity:0.22;stroke:none;stroke-width:0;stroke-linecap:butt;stroke-linejoin:round;stroke-miterlimit:4;stroke-dasharray:none;stroke-dashoffset:0;stroke-opacity:1;-inkscape-stroke:none;stop-color:#000000"
     d="m 111.36756,70.77827 -7.89079,8.884266 V 119.567 l 7.89176,8.40773 z"
     id="path10284"
     sodipodi:nodetypes="ccccc" />
  <path
     style="font-variation-settings:normal;vector-effect:none;fill:#f0e64a;fill-opacity:1;stroke:none;stroke-width:0;stroke-linecap:butt;stroke-linejoin:round;stroke-miterlimit:4;stroke-dasharray:none;stroke-dashoffset:0;stroke-opacity:1;-inkscape-stroke:none;stop-color:#000000"
     d="m 57.689285,140.24599 -7.89693,9.7e-4 -7.89166,-8.87811 v -8.88189 z"
     id="path10491"
     sodipodi:nodetypes="ccccc" />
  <path
     style="font-variation-settings:normal;vector-effect:none;fill:#ee7913;fill-opacity:1;stroke:#000000;stroke-width:0;stroke-linecap:butt;stroke-linejoin:round;stroke-miterlimit:4;stroke-dasharray:none;stroke-dashoffset:0;stroke-opacity:1;-inkscape-stroke:none;stop-color:#000000"
     d="m 41.901565,140.24793 10.890218,0.001 -10.891418,-12.25299 z"
     id="path10489"
     sodipodi:nodetypes="cccc" />
  <path
     style="font-variation-settings:normal;vector-effect:none;fill:#ffffff;fill-opacity:0.22;stroke:none;stroke-width:0;stroke-linecap:butt;stroke-linejoin:round;stroke-miterlimit:4;stroke-dasharray:none;stroke-dashoffset:0;stroke-opacity:1;-inkscape-stroke:none;stop-color:#000000"
     d="m 41.901565,140.24793 7.89079,-8.88442 V 78.670786 l 7.87719,7.877194 v 53.67581 z"
     id="path12698" />
  <path
     style="fill:none;fill-opacity:1;stroke:#ffffff;stroke-width:1.934;stroke-linecap:butt;stroke-linejoin:round;stroke-miterlimit:4;stroke-dasharray:none;stroke-opacity:1;paint-order:normal"
     d="M 41.901565,140.246 V 70.78 h 15.78773 l 37.890533,40.36072 V 70.78 h 15.787732 v 69.466 H 95.579828 L 57.689295,101.463 v 38.783 z"
     id="path940"
     sodipodi:nodetypes="ccccccccccc" />
</svg>
